<?xml version="1.0" encoding="UTF-8"?>
<svg width="24" height="24" viewBox="0 0 24 24" fill="none" xmlns="http://www.w3.org/2000/svg">
    <path d="M12 0C5.37 0 0 5.37 0 12C0 18.63 5.37 24 12 24C18.63 24 24 18.63 24 12C24 5.37 18.63 0 12 0ZM18.5 13.25C18.5 15.89 15.54 18 12 18C8.46 18 5.5 15.89 5.5 13.25C5.5 12.94 5.54 12.64 5.61 12.35C5.09 12.12 4.75 11.59 4.75 11C4.75 10.17 5.42 9.5 6.25 9.5C6.58 9.5 6.89 9.61 7.13 9.8C8.5 8.84 10.16 8.24 12 8.2L13.25 4.5L16.5 5.25C16.5 6.08 17.17 6.75 18 6.75C18.83 6.75 19.5 6.08 19.5 5.25C19.5 4.42 18.83 3.75 18 3.75C17.42 3.75 16.92 4.08 16.71 4.56L14.02 3.94L12.5 8.2C14.34 8.24 16 8.84 17.37 9.8C17.61 9.61 17.92 9.5 18.25 9.5C19.08 9.5 19.75 10.17 19.75 11C19.75 11.59 19.41 12.12 18.89 12.35C18.96 12.64 19 12.94 19 13.25H18.5ZM9.5 12.75C8.67 12.75 8 13.42 8 14.25C8 15.08 8.67 15.75 9.5 15.75C10.33 15.75 11 15.08 11 14.25C11 13.42 10.33 12.75 9.5 12.75ZM14.5 12.75C13.67 12.75 13 13.42 13 14.25C13 15.08 13.67 15.75 14.5 15.75C15.33 15.75 16 15.08 16 14.25C16 13.42 15.33 12.75 14.5 12.75Z" fill="currentColor" stroke="white" stroke-width="0.5"/>
</svg>
